<?xml version="1.0" standalone="no"?>
<!DOCTYPE svg PUBLIC "-//W3C//DTD SVG 20010904//EN"
 "http://www.w3.org/TR/2001/REC-SVG-20010904/DTD/svg10.dtd">
<svg version="1.0" xmlns="http://www.w3.org/2000/svg"
 width="360.000000pt" height="360.000000pt" viewBox="0 0 360.000000 360.000000"
 preserveAspectRatio="xMidYMid meet">

<g transform="translate(0.000000,360.000000) scale(0.100000,-0.100000)"
fill="#000000" stroke="none">
<path d="M1625 3458 c-486 -54 -930 -325 -1209 -736 -180 -265 -286 -612 -286
-931 l0 -95 303 300 c284 282 306 302 376 333 148 67 295 65 441 -6 67 -32 99
-60 295 -254 l221 -218 154 154 154 155 -13 32 c-7 18 -20 62 -27 96 -54 243
176 472 423 422 164 -34 282 -170 291 -335 9 -155 -67 -281 -207 -348 -105
-50 -206 -48 -331 7 -10 4 -62 -41 -170 -149 l-154 -155 215 -217 c118 -120
227 -238 241 -263 92 -161 92 -359 0 -520 -14 -25 -156 -177 -316 -339 l-291
-293 160 5 c302 10 582 98 839 264 372 240 641 636 738 1083 19 91 22 135 23
325 0 246 -9 315 -71 515 -236 763 -999 1259 -1799 1168z"/>
<path d="M805 1796 c-103 -46 -153 -179 -106 -281 72 -159 297 -167 379 -14
20 36 23 56 20 111 -4 82 -39 139 -107 175 -51 26 -137 31 -186 9z"/>
<path d="M1567 1060 c-73 -23 -147 -121 -147 -195 0 -96 69 -187 159 -211 81
-21 143 -4 202 55 74 73 87 151 42 242 -38 73 -91 109 -169 115 -32 2 -72 -1
-87 -6z"/>
</g>
</svg>
